<svg width="166" height="222" viewBox="0 0 166 222" fill="none" xmlns="http://www.w3.org/2000/svg" >
<g clip-path="url(#clip0_43_110)">
<rect width="166" height="222" rx="15" fill="#5C0000"/>
<rect width="166" height="222" rx="15" fill="url(#paint0_linear_43_110)"/>
<circle cx="83" cy="111" r="56" fill="#DEEEFF"/>
<g clip-path="url(#clip1_43_110)">
<path d="M54.9653 90.8976C55.1548 90.7081 55.3245 90.5066 55.4853 90.3006L58.072 92.8873C59.7417 90.0965 61.8699 87.6115 64.3535 85.5369L62.3009 83.4843C62.5098 83.3216 62.7135 83.1491 62.9058 82.957C65.4042 80.4586 65.4118 76.3902 62.9058 73.8842C60.3924 71.3707 56.324 71.3783 53.8255 73.8766C52.1197 75.5826 51.5687 78.0055 52.1801 80.187C50.0063 79.568 47.5909 80.1114 45.885 81.8172C43.3716 84.3307 43.3716 88.3916 45.885 90.9052C48.391 93.4111 52.4519 93.4111 54.9653 90.8976ZM103.198 83.4846L101.136 85.5463C103.619 87.6223 105.751 90.1083 107.425 92.8899L110.013 90.301C110.174 90.5069 110.344 90.7082 110.534 90.8978C113.047 93.4112 117.108 93.4112 119.622 90.8978C122.127 88.3917 122.127 84.331 119.614 81.8174C117.908 80.1116 115.478 79.5681 113.319 80.1871C113.93 78.0208 113.387 75.5903 111.674 73.8769C109.175 71.3785 105.107 71.3709 102.601 73.8769C100.087 76.3904 100.095 80.4589 102.593 82.9573C102.785 83.1491 102.989 83.3217 103.198 83.4846ZM110.541 130.593C110.349 130.785 110.177 130.989 110.014 131.198L104.821 126.005C103.454 127.632 101.903 129.134 100.156 130.465C99.2823 131.132 98.5484 131.917 97.967 132.783L103.198 138.013C102.992 138.174 102.79 138.344 102.601 138.534C100.087 141.047 100.087 145.108 102.601 147.622C105.107 150.128 109.168 150.128 111.681 147.614C113.387 145.908 113.93 143.478 113.312 141.319C115.478 141.93 117.908 141.387 119.622 139.673C122.12 137.175 122.128 133.107 119.622 130.601C117.108 128.087 113.04 128.095 110.541 130.593ZM65.5158 130.602C63.7019 129.24 62.0811 127.7 60.6673 126.016L55.485 131.198C55.3222 130.989 55.1498 130.785 54.9577 130.593C52.4593 128.094 48.391 128.087 45.885 130.593C43.3716 133.107 43.3792 137.175 45.8774 139.673C47.5832 141.379 50.0063 141.93 52.1876 141.319C51.5685 143.493 52.112 145.908 53.8178 147.614C56.3314 150.128 60.3921 150.128 62.9057 147.614C65.4117 145.108 65.4117 141.047 62.8981 138.534C62.7085 138.344 62.5071 138.174 62.301 138.014L67.54 132.775C66.9924 131.94 66.3147 131.199 65.5158 130.602Z" fill="#5C0000"/>
<path d="M99.155 129.424C106.499 123.831 110.908 114.565 109.616 104.35C108.068 92.0846 98.109 82.3066 85.8225 80.9509C69.4799 79.1469 55.6565 91.8925 55.6565 107.872C55.6565 116.743 59.9157 124.61 66.5018 129.552C69.213 131.58 70.7181 134.836 70.7181 138.22V141.262C70.7181 143.621 72.6289 145.532 74.9879 145.532H75.5963V141.967C75.5963 141.134 76.2687 140.462 77.1013 140.462C77.9339 140.462 78.6064 141.134 78.6064 141.967V145.532H81.243V141.967C81.243 141.134 81.9155 140.462 82.7481 140.462C83.5807 140.462 84.2531 141.134 84.2531 141.967V145.532H86.8898V141.967C86.8898 141.134 87.5622 140.462 88.3948 140.462C89.2275 140.462 89.8999 141.134 89.8999 141.967V145.532H90.5083C92.8673 145.532 94.7781 143.621 94.7781 141.262V138.039C94.7785 134.633 96.4438 131.495 99.155 129.424ZM70.9973 120.253C67.0705 120.253 63.8959 117.079 63.8959 113.152C63.8959 109.234 67.0705 106.059 70.9973 106.059C74.9154 106.059 79.5332 106.332 79.5332 110.25C79.5332 114.177 74.9154 120.253 70.9973 120.253ZM85.5914 131.652L79.9033 131.648C78.511 131.647 77.6769 130.1 78.4415 128.936L81.2845 124.61C81.9759 123.558 83.5188 123.558 84.2101 124.61L87.0554 128.94C87.8203 130.104 86.9846 131.652 85.5914 131.652ZM94.4994 120.253C90.5813 120.253 85.9635 114.177 85.9635 110.25C85.9635 106.332 90.5813 106.059 94.4994 106.059C98.4261 106.059 101.601 109.234 101.601 113.152C101.601 117.079 98.4261 120.253 94.4994 120.253Z" fill="#5C0000"/>
</g>
<path class="rotate" fill-rule="evenodd" clip-rule="evenodd" d="M44.717 18.5943C56.5297 13.6957 69.4699 11 83 11C96.5301 11 109.47 13.6957 121.283 18.5943L109.187 47.7646C101.141 44.4282 92.3064 42.5789 83 42.5789C73.6936 42.5789 64.8589 44.4282 56.8135 47.7646L44.717 18.5943ZM175.406 72.717C180.304 84.5297 183 97.4699 183 111C183 124.53 180.304 137.47 175.406 149.283L146.235 137.187C149.572 129.141 151.421 120.306 151.421 111C151.421 101.694 149.572 92.8589 146.235 84.8135L175.406 72.717ZM-17 111C-17 97.4699 -14.3043 84.5297 -9.40574 72.717L19.7646 84.8135C16.4282 92.8589 14.5789 101.694 14.5789 111C14.5789 120.306 16.4282 129.141 19.7646 137.187L-9.40573 149.283C-14.3043 137.47 -17 124.53 -17 111ZM83 211C69.4699 211 56.5297 208.304 44.717 203.406L56.8135 174.235C64.8589 177.572 73.6936 179.421 83 179.421C92.3064 179.421 101.141 177.572 109.187 174.235L121.283 203.406C109.47 208.304 96.5301 211 83 211Z" fill="#DEEEFF"/>
<path class="rotate" fill-rule="evenodd" clip-rule="evenodd" d="M133.925 34.4132C143.966 41.1353 152.609 49.7785 159.332 59.8193L146.211 68.6033C140.637 60.2776 133.467 53.1077 125.141 47.5337L133.925 34.4132ZM6.1579 59.8193C12.88 49.7785 21.5232 41.1353 31.5641 34.4132L40.348 47.5337C32.0223 53.1077 24.8524 60.2776 19.2785 68.6033L6.1579 59.8193ZM31.5641 187.587C21.5233 180.865 12.8801 172.221 6.1579 162.181L19.2785 153.397C24.8524 161.722 32.0223 168.892 40.3481 174.466L31.5641 187.587ZM159.332 162.181C152.609 172.221 143.966 180.865 133.925 187.587L125.141 174.466C133.467 168.892 140.637 161.722 146.211 153.397L159.332 162.181Z" fill="#DEEEFF"/>
</g>
<defs>
<linearGradient id="paint0_linear_43_110" x1="0" y1="0" x2="166" y2="222" gradientUnits="userSpaceOnUse">
<stop stop-color="#FF3F3F" stop-opacity="0"/>
<stop offset="1" stop-color="#E3007B"/>
</linearGradient>
<clipPath id="clip0_43_110">
<rect width="166" height="222" rx="15" fill="white"/>
</clipPath>
<clipPath id="clip1_43_110">
<rect width="77.5" height="77.5" fill="white" transform="translate(44 72)"/>
</clipPath>
</defs>
</svg>
