<svg width="166" height="222" viewBox="0 0 166 222" fill="none" xmlns="http://www.w3.org/2000/svg">
<g clip-path="url(#clip0_43_109)">
<rect width="166" height="222" rx="15" fill="#FFAB3F"/>
<rect width="166" height="222" rx="15" fill="url(#paint0_linear_43_109)"/>
<circle cx="83" cy="111" r="56" fill="#DEEEFF"/>
<path d="M83 149.75C104.375 149.75 121.75 132.375 121.75 111C121.75 89.625 104.375 72.25 83 72.25C61.625 72.25 44.25 89.625 44.25 111C44.25 132.375 61.625 149.75 83 149.75ZM88.2251 115.9C87.475 115.15 86.475 114.75 85.4001 114.75H80.6C77.525 114.75 74.6251 113.55 72.475 111.4C70.325 109.25 69.125 106.35 69.125 103.275C69.125 97.4 73.575 92.6249 79.25 91.925V90.25C79.25 88.175 80.925 86.5 83 86.5C85.0751 86.5 86.75 88.175 86.75 90.25V91.8H93.125C95.2 91.8 96.875 93.475 96.875 95.55C96.875 97.6249 95.2 99.3 93.125 99.3H80.6C78.4 99.3 76.625 101.075 76.625 103.275C76.625 104.35 77.025 105.35 77.7749 106.1C78.5251 106.85 79.525 107.25 80.5999 107.25H85.4001C88.475 107.25 91.3749 108.45 93.5251 110.6C95.675 112.75 96.875 115.65 96.875 118.725C96.875 124.6 92.4251 129.375 86.75 130.075V131.75C86.75 133.825 85.0751 135.5 83 135.5C80.9249 135.5 79.25 133.825 79.25 131.75V130.2H72.875C70.8 130.2 69.125 128.525 69.125 126.45C69.125 124.375 70.8 122.7 72.875 122.7H85.4001C87.6001 122.7 89.375 120.925 89.375 118.725C89.375 117.65 88.975 116.65 88.2251 115.9Z" fill="#FFAB3F"/>
<path class="rotate" fill-rule="evenodd" clip-rule="evenodd" d="M44.717 18.5943C56.5297 13.6957 69.4699 11 83 11C96.5301 11 109.47 13.6957 121.283 18.5943L109.187 47.7646C101.141 44.4282 92.3064 42.5789 83 42.5789C73.6936 42.5789 64.8589 44.4282 56.8135 47.7646L44.717 18.5943ZM175.406 72.717C180.304 84.5297 183 97.4699 183 111C183 124.53 180.304 137.47 175.406 149.283L146.235 137.187C149.572 129.141 151.421 120.306 151.421 111C151.421 101.694 149.572 92.8589 146.235 84.8135L175.406 72.717ZM-17 111C-17 97.4699 -14.3043 84.5297 -9.40574 72.717L19.7646 84.8135C16.4282 92.8589 14.5789 101.694 14.5789 111C14.5789 120.306 16.4282 129.141 19.7646 137.187L-9.40573 149.283C-14.3043 137.47 -17 124.53 -17 111ZM83 211C69.4699 211 56.5297 208.304 44.717 203.406L56.8135 174.235C64.8589 177.572 73.6936 179.421 83 179.421C92.3064 179.421 101.141 177.572 109.187 174.235L121.283 203.406C109.47 208.304 96.5301 211 83 211Z" fill="#DEEEFF"/>
<path class="rotate" fill-rule="evenodd" clip-rule="evenodd" d="M133.925 34.4132C143.966 41.1353 152.609 49.7785 159.332 59.8193L146.211 68.6033C140.637 60.2776 133.467 53.1077 125.141 47.5337L133.925 34.4132ZM6.1579 59.8193C12.88 49.7785 21.5232 41.1353 31.5641 34.4132L40.348 47.5337C32.0223 53.1077 24.8524 60.2776 19.2785 68.6033L6.1579 59.8193ZM31.5641 187.587C21.5233 180.865 12.8801 172.221 6.1579 162.181L19.2785 153.397C24.8524 161.722 32.0223 168.892 40.3481 174.466L31.5641 187.587ZM159.332 162.181C152.609 172.221 143.966 180.865 133.925 187.587L125.141 174.466C133.467 168.892 140.637 161.722 146.211 153.397L159.332 162.181Z" fill="#DEEEFF"/>
</g>
<defs>
<linearGradient id="paint0_linear_43_109" x1="0" y1="0" x2="166" y2="222" gradientUnits="userSpaceOnUse">
<stop stop-color="#FF623F" stop-opacity="0"/>
<stop offset="1" stop-color="#FF623F"/>
</linearGradient>
<clipPath id="clip0_43_109">
<rect width="166" height="222" rx="15" fill="white"/>
</clipPath>
</defs>
</svg>
