<svg width="166" height="222" viewBox="0 0 166 222" fill="none" xmlns="http://www.w3.org/2000/svg">
<g clip-path="url(#clip0_43_108)">
<rect width="166" height="222" rx="15" fill="#1C9393"/>
<rect width="166" height="222" rx="15" fill="url(#paint0_linear_43_108)"/>
<circle cx="83" cy="111" r="56" fill="#DEEEFF"/>
<path d="M82.75 72C75.086 72 67.5941 74.2726 61.2217 78.5306C54.8493 82.7885 49.8826 88.8404 46.9497 95.921C44.0168 103.002 43.2494 110.793 44.7446 118.31C46.2398 125.826 49.9303 132.731 55.3496 138.15C60.7689 143.57 67.6735 147.26 75.1903 148.755C82.707 150.251 90.4984 149.483 97.579 146.55C104.66 143.617 110.712 138.651 114.969 132.278C119.227 125.906 121.5 118.414 121.5 110.75C121.5 105.661 120.498 100.622 118.55 95.921C116.603 91.2196 113.749 86.9479 110.15 83.3496C106.552 79.7513 102.28 76.897 97.579 74.9497C92.8776 73.0023 87.8387 72 82.75 72ZM82.75 134C81.9836 134 81.2344 133.773 80.5972 133.347C79.9599 132.921 79.4633 132.316 79.17 131.608C78.8767 130.9 78.8 130.121 78.9495 129.369C79.099 128.617 79.468 127.927 80.01 127.385C80.5519 126.843 81.2424 126.474 81.994 126.324C82.7457 126.175 83.5248 126.252 84.2329 126.545C84.941 126.838 85.5462 127.335 85.972 127.972C86.3977 128.609 86.625 129.359 86.625 130.125C86.625 131.153 86.2168 132.138 85.49 132.865C84.7633 133.592 83.7777 134 82.75 134ZM86.625 114.005V118.5C86.625 119.528 86.2168 120.513 85.49 121.24C84.7633 121.967 83.7777 122.375 82.75 122.375C81.7223 122.375 80.7367 121.967 80.01 121.24C79.2833 120.513 78.875 119.528 78.875 118.5V110.75C78.875 109.722 79.2833 108.737 80.01 108.01C80.7367 107.283 81.7223 106.875 82.75 106.875C83.8996 106.875 85.0234 106.534 85.9793 105.895C86.9351 105.257 87.6801 104.349 88.1201 103.287C88.56 102.225 88.6751 101.056 88.4508 99.9285C88.2265 98.801 87.673 97.7653 86.8601 96.9524C86.0472 96.1395 85.0115 95.586 83.884 95.3617C82.7565 95.1374 81.5878 95.2525 80.5257 95.6924C79.4636 96.1324 78.5558 96.8774 77.9171 97.8332C77.2784 98.7891 76.9375 99.9129 76.9375 101.062C76.9375 102.09 76.5293 103.076 75.8026 103.803C75.0758 104.529 74.0902 104.937 73.0625 104.937C72.0348 104.937 71.0492 104.529 70.3225 103.803C69.5958 103.076 69.1875 102.09 69.1875 101.062C69.1774 98.5449 69.8682 96.0742 71.1826 93.927C72.497 91.7797 74.3832 90.0408 76.6299 88.9047C78.8766 87.7686 81.3952 87.2804 83.9037 87.4945C86.4121 87.7087 88.8115 88.6169 90.8331 90.1174C92.8547 91.6178 94.4187 93.6514 95.3501 95.9904C96.2815 98.3294 96.5435 100.881 96.1067 103.361C95.67 105.84 94.5517 108.149 92.8771 110.029C91.2025 111.909 89.0377 113.286 86.625 114.005Z" fill="#1C9393"/>
<path class="rotate" fill-rule="evenodd" clip-rule="evenodd" d="M44.717 18.5943C56.5297 13.6957 69.4699 11 83 11C96.5301 11 109.47 13.6957 121.283 18.5943L109.187 47.7646C101.141 44.4282 92.3064 42.5789 83 42.5789C73.6936 42.5789 64.8589 44.4282 56.8135 47.7646L44.717 18.5943ZM175.406 72.717C180.304 84.5297 183 97.4699 183 111C183 124.53 180.304 137.47 175.406 149.283L146.235 137.187C149.572 129.141 151.421 120.306 151.421 111C151.421 101.694 149.572 92.8589 146.235 84.8135L175.406 72.717ZM-17 111C-17 97.4699 -14.3043 84.5297 -9.40574 72.717L19.7646 84.8135C16.4282 92.8589 14.5789 101.694 14.5789 111C14.5789 120.306 16.4282 129.141 19.7646 137.187L-9.40573 149.283C-14.3043 137.47 -17 124.53 -17 111ZM83 211C69.4699 211 56.5297 208.304 44.717 203.406L56.8135 174.235C64.8589 177.572 73.6936 179.421 83 179.421C92.3064 179.421 101.141 177.572 109.187 174.235L121.283 203.406C109.47 208.304 96.5301 211 83 211Z" fill="#DEEEFF"/>
<path class="rotate" fill-rule="evenodd" clip-rule="evenodd" d="M133.925 34.4132C143.966 41.1353 152.609 49.7785 159.332 59.8193L146.211 68.6033C140.637 60.2776 133.467 53.1077 125.141 47.5337L133.925 34.4132ZM6.1579 59.8193C12.88 49.7785 21.5232 41.1353 31.5641 34.4132L40.348 47.5337C32.0223 53.1077 24.8524 60.2776 19.2785 68.6033L6.1579 59.8193ZM31.5641 187.587C21.5233 180.865 12.8801 172.221 6.1579 162.181L19.2785 153.397C24.8524 161.722 32.0223 168.892 40.3481 174.466L31.5641 187.587ZM159.332 162.181C152.609 172.221 143.966 180.865 133.925 187.587L125.141 174.466C133.467 168.892 140.637 161.722 146.211 153.397L159.332 162.181Z" fill="#DEEEFF"/>
</g>
<defs>
<linearGradient id="paint0_linear_43_108" x1="0" y1="0" x2="166" y2="222" gradientUnits="userSpaceOnUse">
<stop stop-color="#3FFFDC" stop-opacity="0"/>
<stop offset="1" stop-color="#45C88B"/>
</linearGradient>
<clipPath id="clip0_43_108">
<rect width="166" height="222" rx="15" fill="white"/>
</clipPath>
</defs>
</svg>
