<svg width="26" height="26" viewBox="0 0 26 26" fill="none" xmlns="http://www.w3.org/2000/svg">
<path d="M13 26C20.171 26 26 20.171 26 13C26 5.82904 20.171 0 13 0C5.82904 0 0 5.82904 0 13C0 20.171 5.82904 26 13 26ZM14.7529 14.6438C14.5013 14.3922 14.1658 14.2581 13.8052 14.2581H12.1948C11.1632 14.2581 10.1904 13.8554 9.46902 13.1342C8.74774 12.4129 8.34518 11.44 8.34518 10.4084C8.34518 8.43741 9.83806 6.83545 11.7419 6.60064V6.03872C11.7419 5.34257 12.3039 4.78065 13 4.78065C13.6962 4.78065 14.2581 5.34257 14.2581 6.03872V6.55872H16.3968C17.0929 6.55872 17.6548 7.12064 17.6548 7.81678C17.6548 8.51288 17.0929 9.07485 16.3968 9.07485H12.1948C11.4568 9.07485 10.8613 9.6703 10.8613 10.4084C10.8613 10.769 10.9955 11.1045 11.2471 11.3561C11.4987 11.6077 11.8342 11.7419 12.1948 11.7419H13.8052C14.8368 11.7419 15.8097 12.1445 16.531 12.8658C17.2523 13.5871 17.6548 14.56 17.6548 15.5916C17.6548 17.5626 16.162 19.1645 14.2581 19.3994V19.9613C14.2581 20.6574 13.6961 21.2193 13 21.2193C12.3039 21.2193 11.7419 20.6574 11.7419 19.9613V19.4413H9.60323C8.90709 19.4413 8.34517 18.8794 8.34517 18.1832C8.34517 17.4871 8.90709 16.9252 9.60323 16.9252H13.8052C14.5432 16.9252 15.1387 16.3297 15.1387 15.5916C15.1387 15.2309 15.0045 14.8955 14.7529 14.6438Z" fill="#FFAB3F"/>
</svg>
