<svg width="50" height="50" viewBox="0 0 50 50" fill="none" xmlns="http://www.w3.org/2000/svg">
<path d="M9.42862 35.1429L6.8572 39L10.8572 43L14.7143 40.4286C16.7143 41.7143 18.7143 42.5715 21.1429 43L22.1429 47.5715H27.8572L28.8572 43C31.4286 42.4286 33.2858 41.5715 35.2858 40.4286L39.1429 43L43.1429 39L40.5715 35.1429C41.8572 33.1429 42.7143 31.2857 43.1429 28.7143L47.7143 27.7143V22L43.1429 21C42.5715 18.4286 41.8572 16.5715 40.5715 14.5715L43.1429 10.7143L39.1429 6.71431L35.2858 9.28574C33.4286 8.00003 31.4286 7.14288 28.8572 6.71431L27.8572 2.14288H22.1429L21.1429 6.71431C18.7143 7.14288 16.8572 8.00003 14.7143 9.28574L11.0001 6.85717L6.8572 11L9.42862 14.8572C8.14291 16.8572 7.28577 18.7143 6.8572 21.2857L2.28577 22.2857V28L6.8572 29C7.42862 31.4286 8.28577 33.2857 9.42862 35.1429ZM25.0001 10.7143C32.8572 10.7143 39.2858 17.1429 39.2858 25C39.2858 32.8572 32.8572 39.2857 25.0001 39.2857C17.1429 39.2857 10.7143 32.8572 10.7143 25C10.7143 17.1429 17.1429 10.7143 25.0001 10.7143Z" fill="#DEEEFF"/>
<path d="M25.0001 35C30.5715 35 35.0001 30.5715 35.0001 25C35.0001 19.4286 30.5715 15 25.0001 15C19.4286 15 15.0001 19.4286 15.0001 25C15.0001 30.5715 19.4286 35 25.0001 35ZM25.0001 19.2857C28.1429 19.2857 30.7143 21.8572 30.7143 25C30.7143 28.1429 28.1429 30.7143 25.0001 30.7143C21.8572 30.7143 19.2858 28.1429 19.2858 25C19.2858 21.8572 21.8572 19.2857 25.0001 19.2857Z" fill="#DEEEFF"/>
</svg>
